<?xml version="1.0" encoding="utf-8"?>
<!-- Generator: Adobe Illustrator 22.1.0, SVG Export Plug-In . SVG Version: 6.00 Build 0)  -->
<svg version="1.1" id="Capa_1" xmlns="http://www.w3.org/2000/svg" xmlns:xlink="http://www.w3.org/1999/xlink" x="0px" y="0px"
	 viewBox="0 0 198.4 51" style="enable-background:new 0 0 198.4 51;" xml:space="preserve">
<style type="text/css">
	.st0{fill:#FFFFFF;}
	.st1{fill:none;}
	.st2{fill-rule:evenodd;clip-rule:evenodd;fill:#FFFFFF;}
</style>
<g>
	<path class="st0" d="M21.3,21.3V9.2h8.5v11.6C31.5,14.1,37,8.9,43.9,7.6C39.3,2.9,32.8,0,25.7,0C18.5,0,12,3,7.4,7.7
		C14.3,9.1,19.7,14.5,21.3,21.3z"/>
	<path class="st0" d="M29.8,29.8V43h-8.5V29.2c-1.6,7-7.2,12.4-14.2,13.7c4.7,5,11.3,8.1,18.6,8.1c7.3,0,13.9-3.1,18.6-8
		C37.2,41.9,31.5,36.6,29.8,29.8z"/>
	<path class="st0" d="M3.8,16C3.1,16,2.5,16,2,16.2c-1.1,2.9-1.8,6-1.8,9.3c0,3.1,0.6,6.1,1.6,8.8c0.6,0.1,1.3,0.2,2,0.2
		c5.1,0,9.3-4.2,9.3-9.3S8.9,16,3.8,16z"/>
	<path class="st0" d="M47.1,16c-5.1,0-9.3,4.2-9.3,9.3s4.2,9.3,9.3,9.3c0.9,0,1.7-0.1,2.5-0.4c1-2.7,1.5-5.6,1.5-8.7
		c0-3.3-0.6-6.4-1.7-9.2C48.7,16.1,47.9,16,47.1,16z"/>
	<path class="st1" d="M21.3,21.3V9.2h8.5v11.6C31.5,14.1,37,8.9,43.9,7.6C39.3,2.9,32.8,0,25.7,0C18.5,0,12,3,7.4,7.7
		C14.3,9.1,19.7,14.5,21.3,21.3z"/>
	<path class="st1" d="M29.8,29.8V43h-8.5V29.2c-1.6,7-7.2,12.4-14.2,13.7c4.7,5,11.3,8.1,18.6,8.1c7.3,0,13.9-3.1,18.6-8
		C37.2,41.9,31.5,36.6,29.8,29.8z"/>
	<path class="st1" d="M21.3,29.2v-7.9c-1.5-6.8-7-12.2-13.8-13.6C5.1,10.1,3.2,13,2,16.2C2.5,16,3.1,16,3.8,16
		c5.1,0,9.3,4.2,9.3,9.3s-4.2,9.3-9.3,9.3c-0.7,0-1.4-0.1-2-0.2c1.2,3.2,3,6.1,5.3,8.6C14.1,41.6,19.7,36.2,21.3,29.2z"/>
	<path class="st1" d="M3.8,16C3.1,16,2.5,16,2,16.2c-1.1,2.9-1.8,6-1.8,9.3c0,3.1,0.6,6.1,1.6,8.8c0.6,0.1,1.3,0.2,2,0.2
		c5.1,0,9.3-4.2,9.3-9.3S8.9,16,3.8,16z"/>
	<path class="st1" d="M47.1,34.6c-5.1,0-9.3-4.2-9.3-9.3S42,16,47.1,16c0.8,0,1.6,0.1,2.3,0.3c-1.3-3.3-3.2-6.2-5.6-8.6
		C37,8.9,31.5,14.1,29.8,20.8v9c1.8,6.8,7.4,12.1,14.5,13.2c2.4-2.5,4.2-5.5,5.4-8.8C48.9,34.4,48,34.6,47.1,34.6z"/>
	<path class="st2" d="M69.3,12.8h6.1v13.5c0,2.5-0.6,4.5-1.9,6c-0.7,0.9-1.7,1.6-2.8,2.1c-1.1,0.5-2.3,0.8-3.5,0.8
		c-2.4,0-4.4-0.8-6.1-2.4c-1.7-1.6-2.5-3.6-2.5-6c0-2.3,0.8-4.2,2.5-5.9c1.6-1.7,3.6-2.5,5.8-2.5c0.4,0,0.9,0,1.6,0.1v6.7
		c-0.5-0.4-1-0.6-1.5-0.6c-0.6,0-1.2,0.2-1.6,0.7c-0.4,0.5-0.7,1-0.7,1.7c0,0.6,0.2,1.2,0.7,1.6s1,0.7,1.7,0.7
		c1.6,0,2.3-1.1,2.3-3.2V12.8z M82.7,19.9v15h-6.1v-15H82.7z M79.7,12.9c0.8,0,1.5,0.3,2.1,0.9c0.6,0.6,0.9,1.3,0.9,2
		c0,0.8-0.3,1.5-0.9,2.1c-0.6,0.5-1.3,0.8-2.2,0.8s-1.6-0.3-2.2-0.8c-0.6-0.5-0.9-1.2-0.9-2.1c0-0.8,0.3-1.5,0.9-2
		C78.2,13.2,78.9,12.9,79.7,12.9z M94.2,27.4l6-0.2c-0.2,2.3-1,4.2-2.6,5.7c-1.6,1.5-3.5,2.2-5.7,2.2c-2.4,0-4.4-0.8-6-2.5
		c-1.6-1.6-2.5-3.7-2.5-6.1c0-2.3,0.8-4.2,2.5-5.8c1.6-1.6,3.6-2.4,5.9-2.4c2,0,3.8,0.6,5.3,1.9s2.5,2.9,2.9,4.9L94,25.4
		c-0.5-0.7-1.2-1-2-1c-0.7,0-1.3,0.2-1.7,0.7c-0.4,0.5-0.7,1-0.7,1.7c0,0.7,0.2,1.3,0.7,1.8c0.5,0.5,1.1,0.7,1.8,0.7
		C93.1,29.2,93.8,28.6,94.2,27.4z M187.4,32.4l2-1.1c0.3,0.8,0.8,1.5,1.4,1.9c0.6,0.4,1.4,0.6,2.3,0.6c0.9,0,1.6-0.2,2.1-0.7
		c0.5-0.5,0.8-1.1,0.8-1.8c0-1.2-1-2.2-3.1-3c-0.2-0.1-0.4-0.1-0.5-0.2c-1.6-0.6-2.7-1.3-3.3-1.9c-0.6-0.7-1-1.5-1-2.5
		c0-1.3,0.5-2.3,1.4-3.2c0.9-0.8,2.1-1.2,3.5-1.2c1.2,0,2.3,0.3,3.1,0.8c0.9,0.5,1.5,1.3,1.9,2.3l-1.9,1.1c-0.2-0.7-0.6-1.3-1.2-1.6
		c-0.6-0.4-1.2-0.6-2.1-0.6c-0.7,0-1.3,0.2-1.8,0.6c-0.5,0.4-0.7,1-0.7,1.6c0,0.6,0.2,1.1,0.7,1.6c0.5,0.4,1.4,0.9,2.9,1.3
		c1.7,0.6,2.8,1.2,3.4,1.9c0.6,0.7,0.9,1.6,0.9,2.8c0,1.4-0.5,2.5-1.5,3.3c-1,0.8-2.3,1.2-4,1.2c-1.3,0-2.4-0.3-3.3-0.9
		C188.5,34.3,187.8,33.5,187.4,32.4z M187.3,27.6h-12c0.1,2,0.5,3.5,1.5,4.6c0.9,1.1,2.2,1.7,3.7,1.7c1.1,0,2.1-0.3,2.9-0.9
		c0.8-0.6,1.5-1.5,2.1-2.7l1.9,1.1c-0.8,1.5-1.7,2.7-2.8,3.4s-2.5,1.1-4.1,1.1c-2.2,0-4-0.7-5.4-2.2c-1.4-1.5-2.1-3.4-2.1-5.9
		c0-2.5,0.7-4.5,2-6c1.4-1.5,3.1-2.3,5.3-2.3c2.1,0,3.8,0.7,5,2.1c1.3,1.4,1.9,3.3,1.9,5.6V27.6z M184.8,25.8
		c-0.1-1.4-0.6-2.5-1.4-3.2c-0.8-0.8-1.9-1.1-3.3-1.1c-1.3,0-2.3,0.4-3.2,1.2c-0.9,0.8-1.4,1.9-1.5,3.2H184.8z M172.1,35.1h-2.2
		V13.1h2.2V35.1z M156.5,35.1h-2.1V13.1h2.1v9.7c0.5-1.1,1.2-1.9,2.2-2.5c0.9-0.6,2-0.8,3.3-0.8c2.1,0,3.8,0.8,5.1,2.3
		c1.3,1.5,2,3.5,2,5.9c0,2.4-0.7,4.4-2,5.9c-1.3,1.5-3.1,2.2-5.3,2.2c-1.2,0-2.3-0.3-3.2-0.9c-0.9-0.6-1.6-1.4-2.1-2.6V35.1z
		 M166.7,27.7c0-2-0.5-3.5-1.4-4.7c-0.9-1.1-2.2-1.7-3.8-1.7c-1.6,0-2.8,0.5-3.7,1.6c-0.9,1.1-1.4,2.5-1.4,4.4c0,2,0.5,3.6,1.4,4.8
		c0.9,1.2,2.2,1.7,3.8,1.7c1.6,0,2.9-0.5,3.8-1.6C166.3,31.2,166.7,29.7,166.7,27.7z M153.6,27.6h-12c0.1,2,0.5,3.5,1.5,4.6
		c0.9,1.1,2.2,1.7,3.7,1.7c1.1,0,2.1-0.3,2.9-0.9c0.8-0.6,1.5-1.5,2.1-2.7l1.9,1.1c-0.8,1.5-1.7,2.7-2.8,3.4
		c-1.1,0.7-2.5,1.1-4.1,1.1c-2.2,0-4-0.7-5.4-2.2c-1.4-1.5-2.1-3.4-2.1-5.9c0-2.5,0.7-4.5,2-6c1.4-1.5,3.1-2.3,5.3-2.3
		c2.1,0,3.8,0.7,5,2.1c1.3,1.4,1.9,3.3,1.9,5.6V27.6z M151.2,25.8c-0.1-1.4-0.6-2.5-1.4-3.2s-1.9-1.1-3.3-1.1
		c-1.3,0-2.3,0.4-3.2,1.2c-0.9,0.8-1.4,1.9-1.5,3.2H151.2z M127.8,20v7.6c0,2.3,0.3,3.9,1,4.9c0.7,0.9,1.8,1.4,3.3,1.4
		c1.5,0,2.7-0.5,3.3-1.4c0.7-1,1-2.6,1-4.9V20h2.1v8.6c0,2.4-0.5,4.1-1.6,5.4c-1.1,1.2-2.7,1.8-4.8,1.8c-2.1,0-3.7-0.6-4.8-1.8
		c-1.1-1.2-1.6-3-1.6-5.4V20H127.8z M103.8,35.1h-2.1V20h2.1v2.4c0.5-1,1.2-1.7,2-2.2c0.8-0.5,1.8-0.7,2.8-0.7
		c1.1,0,2.1,0.3,2.8,0.8c0.8,0.5,1.4,1.2,1.8,2.2c0.6-1,1.3-1.7,2.2-2.2c0.9-0.5,1.9-0.7,3.1-0.7c1.6,0,2.9,0.5,3.8,1.5
		c0.9,1,1.4,2.3,1.4,4v10.3h-2.1v-9.4c0-1.5-0.3-2.6-0.9-3.4c-0.6-0.8-1.5-1.1-2.7-1.1c-1.4,0-2.5,0.5-3.2,1.4c-0.7,0.9-1,2.4-1,4.5
		v8h-2.1v-9.4c0-1.5-0.3-2.7-0.9-3.4s-1.5-1.1-2.7-1.1c-1.5,0-2.6,0.5-3.3,1.4c-0.7,1-1,2.4-1,4.5V35.1z"/>
</g>
</svg>
