<?xml version="1.0" encoding="utf-8"?>
<svg version="1.1" id="Capa_1" xmlns="http://www.w3.org/2000/svg" xmlns:xlink="http://www.w3.org/1999/xlink" x="0px" y="0px"
	 viewBox="0 0 442.2 116.2" style="enable-background:new 0 0 442.2 116.2;" xml:space="preserve">
<style type="text/css">
	.st0{fill:#F8991D;}
	.st1{clip-path:url(#SVGID_2_);fill-rule:evenodd;clip-rule:evenodd;fill:#FFFFFF;}
	.st2{clip-path:url(#SVGID_2_);fill:#FFFFFF;}
	.st3{fill-rule:evenodd;clip-rule:evenodd;fill:#7B7C7F;}
</style>
<g>
	<ellipse transform="matrix(0.3827 -0.9239 0.9239 0.3827 -18.5295 88.489)" class="st0" cx="57" cy="58.1" rx="56.7" ry="56.7"/>
	<g>
		<defs>
			<ellipse id="SVGID_1_" transform="matrix(1 -7.245416e-03 7.245416e-03 1 -0.4195 0.4142)" cx="57" cy="58.1" rx="57" ry="57"/>
		</defs>
		<clipPath id="SVGID_2_">
			<use xlink:href="#SVGID_1_"  style="overflow:visible;"/>
		</clipPath>
		<path class="st1" d="M-32,57.6c0-22.1,17.9-40,40-40c22.1,0,40,17.9,40,40s-17.9,40-40,40C-14.1,97.6-32,79.7-32,57.6z
			 M-12.7,57.6c0-11.5,9.3-20.8,20.8-20.8c11.5,0,20.8,9.3,20.8,20.8S19.5,78.4,8,78.4C-3.5,78.4-12.7,69.1-12.7,57.6z"/>
		<path class="st1" d="M64.8,57.6c0-22.1,17.9-40,40-40s40,17.9,40,40s-17.9,40-40,40S64.8,79.7,64.8,57.6z M84.1,57.6
			c0-11.5,9.3-20.8,20.8-20.8s20.8,9.3,20.8,20.8s-9.3,20.8-20.8,20.8S84.1,69.1,84.1,57.6z"/>
		<rect x="47" y="21.7" class="st2" width="19" height="75.4"/>
	</g>
	<path class="st3" d="M154.3,29.6h13.5v30c0,5.5-1.4,10-4.3,13.5c-1.7,2-3.8,3.6-6.3,4.8c-2.6,1.2-5.2,1.8-7.9,1.8
		c-5.4,0-9.9-1.8-13.6-5.4c-3.7-3.6-5.5-8.1-5.5-13.3c0-5.1,1.8-9.5,5.5-13.2c3.7-3.7,8-5.6,13-5.6c0.8,0,2,0.1,3.6,0.2v14.9
		c-1.1-0.9-2.2-1.3-3.3-1.3c-1.4,0-2.6,0.5-3.6,1.5c-1,1-1.5,2.3-1.5,3.7c0,1.4,0.5,2.6,1.6,3.6s2.3,1.5,3.7,1.5
		c3.5,0,5.2-2.4,5.2-7.2V29.6z M184.3,45.5V79h-13.5V45.5H184.3z M177.6,30c1.8,0,3.4,0.6,4.8,1.9c1.3,1.3,2,2.8,2,4.6
		c0,1.9-0.6,3.4-1.9,4.6c-1.3,1.2-2.9,1.8-4.9,1.8s-3.6-0.6-4.9-1.8c-1.3-1.2-1.9-2.7-1.9-4.6c0-1.8,0.7-3.3,2-4.6
		C174.1,30.6,175.7,30,177.6,30z M210,62.4l13.4-0.5c-0.4,5.2-2.3,9.5-5.8,12.8c-3.5,3.3-7.7,5-12.7,5c-5.3,0-9.8-1.8-13.4-5.5
		c-3.6-3.7-5.5-8.2-5.5-13.5c0-5.1,1.8-9.4,5.5-13c3.7-3.6,8.1-5.4,13.3-5.4c4.5,0,8.5,1.4,11.9,4.3c3.4,2.8,5.6,6.5,6.4,10.9
		l-13.7,0.5c-1.2-1.5-2.7-2.3-4.5-2.3c-1.5,0-2.8,0.5-3.8,1.5c-1,1-1.5,2.3-1.5,3.8c0,1.6,0.5,2.9,1.6,3.9c1,1.1,2.4,1.6,3.9,1.6
		C207.4,66.4,209,65.1,210,62.4z M418,73.5l4.4-2.6c0.7,1.9,1.8,3.3,3.2,4.3c1.4,1,3.1,1.4,5.2,1.4c2,0,3.6-0.5,4.7-1.5
		c1.2-1,1.8-2.3,1.8-4c0-2.6-2.3-4.8-6.9-6.6c-0.5-0.2-0.9-0.3-1.1-0.5c-3.6-1.4-6-2.8-7.5-4.3c-1.4-1.5-2.1-3.3-2.1-5.5
		c0-2.9,1-5.2,3.1-7.1s4.7-2.8,7.9-2.8c2.7,0,5.1,0.6,7,1.8c1.9,1.2,3.3,2.9,4.2,5.1l-4.3,2.4c-0.5-1.6-1.4-2.8-2.7-3.7
		c-1.2-0.8-2.8-1.3-4.6-1.3c-1.6,0-3,0.5-4,1.4c-1.1,1-1.6,2.1-1.6,3.6c0,1.4,0.5,2.6,1.6,3.5c1,0.9,3.2,1.9,6.5,3
		c3.7,1.3,6.2,2.7,7.5,4.2c1.3,1.5,1.9,3.6,1.9,6.3c0,3.1-1.1,5.6-3.3,7.4c-2.2,1.9-5.2,2.8-8.9,2.8c-2.9,0-5.3-0.7-7.4-2
		C420.5,77.8,419,75.9,418,73.5z M417.7,62.7h-26.9c0.1,4.4,1.2,7.8,3.3,10.3c2.1,2.5,4.8,3.7,8.3,3.7c2.5,0,4.7-0.7,6.6-2
		c1.9-1.3,3.4-3.4,4.7-6.1l4.3,2.4c-1.7,3.4-3.8,6-6.4,7.6c-2.5,1.6-5.6,2.4-9.2,2.4c-5,0-9-1.7-12-5c-3.1-3.3-4.6-7.7-4.6-13.1
		c0-5.5,1.5-10,4.6-13.4c3-3.4,7-5.1,11.9-5.1c4.7,0,8.4,1.6,11.3,4.7c2.8,3.1,4.2,7.3,4.2,12.6V62.7z M412.2,58.8
		c-0.2-3.1-1.3-5.5-3.1-7.2c-1.8-1.7-4.3-2.6-7.4-2.6c-2.9,0-5.2,0.9-7.2,2.7s-3,4.1-3.3,7.1H412.2z M383.8,79.5H379V30.3h4.8V79.5z
		 M349.1,79.5h-4.7V30.3h4.7v21.6c1.1-2.4,2.8-4.3,4.8-5.5c2.1-1.3,4.5-1.9,7.4-1.9c4.6,0,8.4,1.7,11.3,5.1s4.4,7.8,4.4,13.3
		c0,5.5-1.5,9.9-4.4,13.2c-3,3.3-6.9,5-11.7,5c-2.7,0-5.1-0.6-7.1-1.9s-3.6-3.2-4.7-5.7V79.5z M371.8,63c0-4.4-1-7.9-3.1-10.4
		c-2.1-2.5-4.9-3.8-8.4-3.8s-6.3,1.2-8.3,3.6c-2,2.4-3,5.6-3,9.8c0,4.5,1,8.1,3.1,10.7c2,2.6,4.9,3.9,8.4,3.9c3.6,0,6.4-1.2,8.4-3.5
		C370.8,70.8,371.8,67.4,371.8,63z M342.6,62.7h-26.9c0.1,4.4,1.2,7.8,3.3,10.3c2.1,2.5,4.8,3.7,8.3,3.7c2.5,0,4.7-0.7,6.6-2
		c1.9-1.3,3.4-3.4,4.7-6.1l4.3,2.4c-1.7,3.4-3.8,6-6.4,7.6c-2.5,1.6-5.6,2.4-9.2,2.4c-5,0-9-1.7-12-5c-3.1-3.3-4.6-7.7-4.6-13.1
		c0-5.5,1.5-10,4.6-13.4c3-3.4,7-5.1,11.9-5.1c4.7,0,8.4,1.6,11.3,4.7c2.8,3.1,4.2,7.3,4.2,12.6V62.7z M337.1,58.8
		c-0.2-3.1-1.3-5.5-3.1-7.2c-1.8-1.7-4.3-2.6-7.4-2.6c-2.9,0-5.2,0.9-7.2,2.7c-1.9,1.8-3,4.1-3.3,7.1H337.1z M285,45.7v16.9
		c0,5.1,0.7,8.8,2.2,10.9c1.5,2.1,3.9,3.2,7.4,3.2c3.5,0,5.9-1.1,7.4-3.2c1.5-2.1,2.3-5.7,2.3-10.8V45.7h4.7V65
		c0,5.3-1.2,9.2-3.6,12c-2.4,2.7-6,4.1-10.7,4.1c-4.7,0-8.3-1.4-10.7-4.1c-2.4-2.7-3.7-6.7-3.7-12V45.7H285z M231.3,79.5h-4.7V45.7
		h4.7V51c1.1-2.1,2.6-3.8,4.4-4.9c1.8-1.1,3.9-1.7,6.3-1.7c2.5,0,4.6,0.6,6.3,1.7c1.7,1.1,3.1,2.8,4,5c1.3-2.2,3-3.9,5-5
		c2-1.1,4.2-1.7,6.8-1.7c3.6,0,6.4,1.1,8.5,3.3c2.1,2.2,3.1,5.2,3.1,8.9v22.9h-4.7v-21c0-3.3-0.7-5.8-2-7.5
		c-1.4-1.7-3.4-2.5-6.1-2.5c-3.2,0-5.6,1.1-7.1,3.2c-1.5,2.1-2.3,5.5-2.3,10v17.8h-4.7v-21c0-3.5-0.6-6-1.9-7.6
		c-1.3-1.6-3.3-2.4-6-2.4c-3.3,0-5.7,1.1-7.3,3.2c-1.6,2.1-2.3,5.5-2.3,10V79.5z"/>
</g>
</svg>
